<svg t="1562222891697" class="icon" viewBox="0 0 1024 1024" version="1.1" xmlns="http://www.w3.org/2000/svg" p-id="9789" width="48" height="48"><path d="M889.856 172.032a29.696 29.696 0 0 0-31.744 31.744v635.392a68.096 68.096 0 0 1-62.976 63.488H241.152c-37.888 0-81.92-31.744-81.92-63.488V768c0-31.744 37.888-51.2 75.776-51.2h528.896a29.696 29.696 0 0 0 31.744-31.744V165.888A113.152 113.152 0 0 0 669.696 51.2H241.152C171.52 51.2 102.4 89.6 102.4 165.888v698.88A134.656 134.656 0 0 0 222.208 972.8h573.44A125.952 125.952 0 0 0 921.6 851.968V204.8a33.792 33.792 0 0 0-31.744-31.744zM768 781.824H256a31.744 31.744 0 0 0 0 63.488h512a31.744 31.744 0 0 0 0-63.488z" p-id="9790"></path></svg>